HIERARCHY
ROOT mixamorig:Hips
{
	OFFSET 0.000000 201.639420 0.000000
	CHANNELS 6 Xposition Yposition Zposition Xrotation Yrotation Zrotation
	JOINT mixamorig:Spine
	{
		OFFSET 0.006200 19.524994 -2.481800
		CHANNELS 3 Xrotation Yrotation Zrotation
		JOINT mixamorig:Spine1
		{
			OFFSET -0.000900 22.835007 -2.825400
			CHANNELS 3 Xrotation Yrotation Zrotation
			JOINT mixamorig:Spine2
			{
				OFFSET -0.020600 26.552490 -3.193300
				CHANNELS 3 Xrotation Yrotation Zrotation
				JOINT mixamorig:Neck
				{
					OFFSET -0.060000 30.701813 1.352200
					CHANNELS 3 Xrotation Yrotation Zrotation
					JOINT mixamorig:Head
					{
						OFFSET -0.087200 22.547607 3.670900
						CHANNELS 3 Xrotation Yrotation Zrotation
						JOINT mixamorig:HeadTop_End
						{
							OFFSET -0.830600 40.355194 7.893500
							CHANNELS 3 Xrotation Yrotation Zrotation
							End Site
							{
								OFFSET 0.000000 30.592346 0.000000
							}
						}
						JOINT mixamorig:RightEye
						{
							OFFSET -6.302100 18.118591 16.197100
							CHANNELS 3 Xrotation Yrotation Zrotation
							End Site
							{
								OFFSET 0.000000 30.592346 0.000000
							}
						}
						JOINT mixamorig:LeftEye
						{
							OFFSET 6.741500 18.382690 16.401899
							CHANNELS 3 Xrotation Yrotation Zrotation
							End Site
							{
								OFFSET 0.000000 30.592346 0.000000
							}
						}
					}
				}
				JOINT mixamorig:LeftShoulder
				{
					OFFSET 11.924900 18.230499 1.425400
					CHANNELS 3 Xrotation Yrotation Zrotation
					JOINT mixamorig:LeftArm
					{
						OFFSET 25.435989 -0.697632 -5.229300
						CHANNELS 3 Xrotation Yrotation Zrotation
						JOINT mixamorig:LeftForeArm
						{
							OFFSET 54.684776 0.000000 0.000000
							CHANNELS 3 Xrotation Yrotation Zrotation
							JOINT mixamorig:LeftHand
							{
								OFFSET 55.098175 0.000000 0.000000
								CHANNELS 3 Xrotation Yrotation Zrotation
								JOINT mixamorig:LeftHandMiddle1
								{
									OFFSET 23.369751 0.000000 0.000000
									CHANNELS 3 Xrotation Yrotation Zrotation
									JOINT mixamorig:LeftHandMiddle2
									{
										OFFSET 6.378677 0.000000 0.000000
										CHANNELS 3 Xrotation Yrotation Zrotation
										JOINT mixamorig:LeftHandMiddle3
										{
											OFFSET 6.148331 0.000000 0.000000
											CHANNELS 3 Xrotation Yrotation Zrotation
											JOINT mixamorig:LeftHandMiddle4
											{
												OFFSET 6.582504 0.000000 0.000000
												CHANNELS 3 Xrotation Yrotation Zrotation
												End Site
												{
													OFFSET -1.168900 6.395691 1.028606
												}
											}
										}
									}
								}
								JOINT mixamorig:LeftHandThumb1
								{
									OFFSET 7.235672 -3.848206 5.434273
									CHANNELS 3 Xrotation Yrotation Zrotation
									JOINT mixamorig:LeftHandThumb2
									{
										OFFSET 6.568451 -3.792297 3.792300
										CHANNELS 3 Xrotation Yrotation Zrotation
										JOINT mixamorig:LeftHandThumb3
										{
											OFFSET 6.063080 -3.500519 3.500518
											CHANNELS 3 Xrotation Yrotation Zrotation
											JOINT mixamorig:LeftHandThumb4
											{
												OFFSET 4.793182 -2.767334 2.767349
												CHANNELS 3 Xrotation Yrotation Zrotation
												End Site
												{
													OFFSET 0.101639 6.054260 1.275483
												}
											}
										}
									}
								}
								JOINT mixamorig:LeftHandIndex1
								{
									OFFSET 23.101074 -0.309540 4.992809
									CHANNELS 3 Xrotation Yrotation Zrotation
									JOINT mixamorig:LeftHandIndex2
									{
										OFFSET 6.226883 0.000000 0.000000
										CHANNELS 3 Xrotation Yrotation Zrotation
										JOINT mixamorig:LeftHandIndex3
										{
											OFFSET 6.094330 0.000000 0.000000
											CHANNELS 3 Xrotation Yrotation Zrotation
											JOINT mixamorig:LeftHandIndex4
											{
												OFFSET 5.482605 0.000000 0.000000
												CHANNELS 3 Xrotation Yrotation Zrotation
												End Site
												{
													OFFSET -1.427902 5.233032 0.797164
												}
											}
										}
									}
								}
								JOINT mixamorig:LeftHandRing1
								{
									OFFSET 22.299240 0.021149 -3.964172
									CHANNELS 3 Xrotation Yrotation Zrotation
									JOINT mixamorig:LeftHandRing2
									{
										OFFSET 6.321869 0.000000 0.000000
										CHANNELS 3 Xrotation Yrotation Zrotation
										JOINT mixamorig:LeftHandRing3
										{
											OFFSET 5.899796 0.000000 0.000000
											CHANNELS 3 Xrotation Yrotation Zrotation
											JOINT mixamorig:LeftHandRing4
											{
												OFFSET 6.517899 0.000000 0.000000
												CHANNELS 3 Xrotation Yrotation Zrotation
												End Site
												{
													OFFSET -1.637299 6.232208 0.980890
												}
											}
										}
									}
								}
								JOINT mixamorig:LeftHandPinky1
								{
									OFFSET 20.463791 -0.302338 -8.562233
									CHANNELS 3 Xrotation Yrotation Zrotation
									JOINT mixamorig:LeftHandPinky2
									{
										OFFSET 6.908646 0.000000 0.000000
										CHANNELS 3 Xrotation Yrotation Zrotation
										JOINT mixamorig:LeftHandPinky3
										{
											OFFSET 4.622849 0.000000 0.000000
											CHANNELS 3 Xrotation Yrotation Zrotation
											JOINT mixamorig:LeftHandPinky4
											{
												OFFSET 5.216080 0.000000 0.000000
												CHANNELS 3 Xrotation Yrotation Zrotation
												End Site
												{
													OFFSET -0.606308 5.116241 0.814926
												}
											}
										}
									}
								}
							}
						}
					}
				}
				JOINT mixamorig:RightShoulder
				{
					OFFSET -12.001300 18.284088 1.348900
					CHANNELS 3 Xrotation Yrotation Zrotation
					JOINT mixamorig:RightArm
					{
						OFFSET -25.308500 -0.751312 -5.164599
						CHANNELS 3 Xrotation Yrotation Zrotation
						JOINT mixamorig:RightForeArm
						{
							OFFSET -54.684429 0.000000 0.000000
							CHANNELS 3 Xrotation Yrotation Zrotation
							JOINT mixamorig:RightHand
							{
								OFFSET -55.150291 0.000000 0.000000
								CHANNELS 3 Xrotation Yrotation Zrotation
								JOINT mixamorig:RightHandMiddle1
								{
									OFFSET -23.317566 0.000000 0.000000
									CHANNELS 3 Xrotation Yrotation Zrotation
									JOINT mixamorig:RightHandMiddle2
									{
										OFFSET -6.378403 0.000000 0.000000
										CHANNELS 3 Xrotation Yrotation Zrotation
										JOINT mixamorig:RightHandMiddle3
										{
											OFFSET -6.148193 0.000000 0.000000
											CHANNELS 3 Xrotation Yrotation Zrotation
											JOINT mixamorig:RightHandMiddle4
											{
												OFFSET -6.583389 0.000000 0.000000
												CHANNELS 3 Xrotation Yrotation Zrotation
												End Site
												{
													OFFSET 1.171692 6.395905 1.029786
												}
											}
										}
									}
								}
								JOINT mixamorig:RightHandThumb1
								{
									OFFSET -7.190521 -3.860474 5.435846
									CHANNELS 3 Xrotation Yrotation Zrotation
									JOINT mixamorig:RightHandThumb2
									{
										OFFSET -6.567429 -3.791718 3.791708
										CHANNELS 3 Xrotation Yrotation Zrotation
										JOINT mixamorig:RightHandThumb3
										{
											OFFSET -6.062469 -3.500153 3.500166
											CHANNELS 3 Xrotation Yrotation Zrotation
											JOINT mixamorig:RightHandThumb4
											{
												OFFSET -4.792618 -2.767029 2.767022
												CHANNELS 3 Xrotation Yrotation Zrotation
												End Site
												{
													OFFSET -0.100327 6.053253 1.276754
												}
											}
										}
									}
								}
								JOINT mixamorig:RightHandIndex1
								{
									OFFSET -23.048981 -0.310791 4.992554
									CHANNELS 3 Xrotation Yrotation Zrotation
									JOINT mixamorig:RightHandIndex2
									{
										OFFSET -6.227539 0.000000 0.000000
										CHANNELS 3 Xrotation Yrotation Zrotation
										JOINT mixamorig:RightHandIndex3
										{
											OFFSET -6.095047 0.000000 0.000000
											CHANNELS 3 Xrotation Yrotation Zrotation
											JOINT mixamorig:RightHandIndex4
											{
												OFFSET -5.484772 0.000000 0.000000
												CHANNELS 3 Xrotation Yrotation Zrotation
												End Site
												{
													OFFSET 1.420593 5.237305 0.797056
												}
											}
										}
									}
								}
								JOINT mixamorig:RightHandRing1
								{
									OFFSET -22.246323 0.020569 -3.963762
									CHANNELS 3 Xrotation Yrotation Zrotation
									JOINT mixamorig:RightHandRing2
									{
										OFFSET -6.322128 0.000000 0.000000
										CHANNELS 3 Xrotation Yrotation Zrotation
										JOINT mixamorig:RightHandRing3
										{
											OFFSET -5.900024 0.000000 0.000000
											CHANNELS 3 Xrotation Yrotation Zrotation
											JOINT mixamorig:RightHandRing4
											{
												OFFSET -6.518356 0.000000 0.000000
												CHANNELS 3 Xrotation Yrotation Zrotation
												End Site
												{
													OFFSET 1.636398 6.232697 0.982186
												}
											}
										}
									}
								}
								JOINT mixamorig:RightHandPinky1
								{
									OFFSET -20.411011 -0.303314 -8.561701
									CHANNELS 3 Xrotation Yrotation Zrotation
									JOINT mixamorig:RightHandPinky2
									{
										OFFSET -6.907349 0.000000 0.000000
										CHANNELS 3 Xrotation Yrotation Zrotation
										JOINT mixamorig:RightHandPinky3
										{
											OFFSET -4.623840 0.000000 0.000000
											CHANNELS 3 Xrotation Yrotation Zrotation
											JOINT mixamorig:RightHandPinky4
											{
												OFFSET -5.218353 0.000000 0.000000
												CHANNELS 3 Xrotation Yrotation Zrotation
												End Site
												{
													OFFSET 0.602097 5.118835 0.816273
												}
											}
										}
									}
								}
							}
						}
					}
				}
			}
		}
	}
	JOINT mixamorig:LeftUpLeg
	{
		OFFSET 18.168400 -13.561905 -0.039000
		CHANNELS 3 Xrotation Yrotation Zrotation
		JOINT mixamorig:LeftLeg
		{
			OFFSET 0.577358 -80.825211 -3.695000
			CHANNELS 3 Xrotation Yrotation Zrotation
			JOINT mixamorig:LeftFoot
			{
				OFFSET -0.577356 -83.370262 -6.520700
				CHANNELS 3 Xrotation Yrotation Zrotation
				JOINT mixamorig:LeftToeBase
				{
					OFFSET 0.750401 -20.798306 25.135401
					CHANNELS 3 Xrotation Yrotation Zrotation
					JOINT mixamorig:LeftToe_End
					{
						OFFSET -0.000500 0.001200 19.917799
						CHANNELS 3 Xrotation Yrotation Zrotation
						End Site
						{
							OFFSET 0.000000 19.917805 0.000000
						}
					}
				}
			}
		}
	}
	JOINT mixamorig:RightUpLeg
	{
		OFFSET -18.162500 -13.585098 -0.041000
		CHANNELS 3 Xrotation Yrotation Zrotation
		JOINT mixamorig:RightLeg
		{
			OFFSET -0.595024 -80.945297 -3.631900
			CHANNELS 3 Xrotation Yrotation Zrotation
			JOINT mixamorig:RightFoot
			{
				OFFSET 0.595024 -83.218193 -6.561200
				CHANNELS 3 Xrotation Yrotation Zrotation
				JOINT mixamorig:RightToeBase
				{
					OFFSET -0.753601 -20.807106 25.115000
					CHANNELS 3 Xrotation Yrotation Zrotation
					JOINT mixamorig:RightToe_End
					{
						OFFSET 0.000299 0.001700 19.918200
						CHANNELS 3 Xrotation Yrotation Zrotation
						End Site
						{
							OFFSET 0.000000 19.918203 0.000000
						}
					}
				}
			}
		}
	}
}
MOTION
Frames: 4
Frame Time: 0.033333
-12.362569 187.547699 11.173670 536.145316 -196.705309 -178.235849 13.174642 -0.466186 -8.889182 2.961054 0.011352 -0.747981 2.961111 0.036512 -0.748158 6.724113 10.605765 -4.135565 6.448288 54.880317 -18.043616 0.000002 -0.000000 0.000000 0.000002 -0.000000 0.000000 0.000002 -0.000000 0.000000 1.049681 2.551284 -18.462894 -10.662630 0.163688 -43.059015 0.000482 -86.514967 0.000452 -31.346562 -11.619391 6.556652 0.001259 0.131439 -1.089214 0.037449 0.718683 -5.966293 0.002109 0.170216 -1.410599 0.000001 -0.000000 0.000003 -1.897836 2.724553 12.530513 4.199364 10.354411 1.954888 -0.382964 3.845833 3.791790 0.000001 0.000001 0.000003 0.001283 0.133364 -1.105195 0.037248 0.716762 -5.950320 0.002108 0.170218 -1.410594 0.000000 0.000001 -0.000003 0.004237 0.242142 -2.006878 0.074089 1.009473 -8.395860 0.002112 0.170225 -1.410602 -0.000000 0.000001 -0.000004 0.088080 4.230267 -0.958748 0.178906 -2.476697 -13.703374 0.003500 0.219464 -1.818871 0.000000 0.000000 -0.000000 0.640573 4.558240 4.290220 16.066717 49.939106 48.545262 -0.000019 66.981999 0.000018 -6.453281 13.069326 2.645052 0.129642 -1.339152 11.059093 0.548184 -2.710702 22.861528 0.087846 -1.104010 9.098476 -0.000001 0.000001 0.000001 -1.222391 -4.850220 1.924502 4.338507 -9.879434 -2.396749 -1.557646 -1.057550 -4.247938 0.000000 -0.000000 -0.000001 0.129654 -1.339151 11.059088 0.548176 -2.710687 22.861541 0.087848 -1.104024 9.098478 0.000001 0.000004 0.000001 0.153654 -1.456554 12.043016 0.548185 -2.710711 22.861541 0.087821 -1.104009 9.098481 0.000000 0.000004 -0.000001 0.215935 -1.722732 14.288030 0.548204 -2.710703 22.861531 0.087825 -1.104007 9.098477 0.000001 -0.000001 -0.000001 -28.551567 13.687510 0.357373 42.274370 8.555539 -1.132721 -11.404569 -0.825574 5.774431 -0.000045 0.000009 -0.000001 -0.000000 0.000002 0.000000 -28.668022 -14.277766 -12.770098 71.210234 6.731635 1.815727 6.668386 0.102917 6.004967 -22.020475 1.980374 -8.708904 0.000000 0.000000 -0.000000 
-16.629164 187.821609 12.418090 535.465302 -199.798155 -180.001808 13.760641 -2.762772 -8.079957 3.179839 -0.317712 -0.355389 3.182477 -0.283765 -0.361639 7.176999 10.404414 -2.726991 10.468276 54.531810 -19.066205 -0.000001 0.000000 0.000000 -0.000001 0.000000 0.000000 -0.000001 0.000000 0.000000 0.810010 0.728583 -15.738948 -9.127888 -4.111185 -48.227085 0.000016 -75.368617 0.000001 -37.258398 -12.464045 9.564082 -0.000001 -0.014568 0.120699 0.007882 0.329973 -2.735349 0.000337 0.067817 -0.561990 -0.000002 0.000002 -0.000002 -2.089141 2.000559 17.168630 4.181198 10.294746 1.940666 -0.400166 3.788591 3.774704 0.000001 -0.000002 0.000002 0.000005 -0.012632 0.104715 0.007780 0.328044 -2.719382 0.000347 0.067819 -0.561996 -0.000000 0.000000 -0.000003 0.000667 0.096190 -0.796964 0.030151 0.645069 -5.353318 0.000344 0.067816 -0.562000 0.000001 -0.000001 0.000002 0.000119 4.085180 0.254455 0.097189 -2.857866 -10.476527 0.000998 0.117083 -0.970269 0.000000 -0.000001 -0.000000 0.530687 1.646707 6.014338 20.254166 49.045789 44.262300 -0.000019 69.652411 0.000024 -8.507130 13.468097 4.742119 0.155601 -1.465558 12.118590 0.625672 -2.887383 24.447989 0.102246 -1.190398 9.817533 0.000000 -0.000004 0.000001 -1.163044 -4.949222 2.619077 4.301953 -9.782059 -2.383104 -1.594174 -0.961043 -4.226691 0.000000 0.000003 0.000002 0.155603 -1.465558 12.118591 0.625670 -2.887372 24.447996 0.102248 -1.190398 9.817525 0.000001 -0.000002 0.000002 0.183876 -1.591571 13.179086 0.625668 -2.887376 24.448001 0.102222 -1.190415 9.817538 0.000000 0.000000 -0.000001 0.252848 -1.861587 15.468097 0.625652 -2.887357 24.447991 0.102268 -1.190419 9.817528 0.000000 -0.000003 -0.000003 -29.524145 12.208508 3.243649 43.405186 5.498698 -0.319512 -11.124983 -0.694688 4.809309 -0.000032 0.000010 0.000004 -0.000000 0.000002 -0.000000 -25.777778 -10.262719 -13.324698 69.442444 -1.374582 0.856620 6.764371 0.103200 3.984041 -19.124490 -1.444982 6.501695 -0.000001 -0.000000 -0.000000 
-20.892294 188.555130 13.677002 535.360172 -202.585091 -181.864210 13.858317 -4.484907 -6.840819 3.559172 -0.575613 -0.154205 3.564474 -0.537795 -0.167834 7.142336 10.187272 -1.818711 13.295965 53.826211 -20.521445 -0.000001 0.000000 -0.000000 -0.000001 0.000000 -0.000000 -0.000001 0.000000 -0.000000 0.674982 -0.986013 -13.687408 -5.948279 -7.378053 -51.138876 -0.000023 -66.968331 -0.000055 -46.665184 -10.878683 10.589121 0.000019 -0.013958 0.115644 0.007954 0.331601 -2.748820 0.000332 0.068239 -0.565527 0.000001 0.000000 -0.000001 -2.088466 2.003601 17.149318 4.163137 10.235273 1.926444 -0.417298 3.731563 3.757649 0.000003 -0.000003 -0.000002 0.000011 -0.012037 0.099661 0.007871 0.329681 -2.732833 0.000330 0.068242 -0.565543 0.000001 -0.000001 0.000001 0.000680 0.096783 -0.802021 0.030310 0.646602 -5.365967 0.000339 0.068227 -0.565531 -0.000001 0.000001 0.000004 0.000493 4.085787 0.249398 0.097487 -2.856276 -10.489950 0.001007 0.117503 -0.973802 0.000002 0.000000 -0.000001 0.478439 -0.909039 6.785664 22.269866 47.451998 42.319712 -0.000032 72.302846 0.000046 -12.593288 15.271603 7.759565 0.185290 -1.597639 13.230311 0.712189 -3.070347 26.112954 0.111000 -1.239940 10.230374 0.000000 0.000001 0.000005 -1.110726 -5.034333 3.220492 4.265732 -9.685433 -2.369408 -1.630360 -0.865252 -4.205443 -0.000002 -0.000002 0.000000 0.185282 -1.597643 13.230309 0.712208 -3.070335 26.112959 0.110991 -1.239934 10.230373 0.000001 -0.000003 0.000007 0.218455 -1.732543 14.371141 0.712187 -3.070350 26.112959 0.111004 -1.239938 10.230373 -0.000001 0.000003 0.000001 0.294650 -2.006412 16.706370 0.712189 -3.070346 26.112957 0.110997 -1.239947 10.230386 0.000001 0.000004 -0.000003 -30.535313 11.037412 5.861158 43.398629 2.517653 0.855477 -10.238379 -0.531126 3.696576 0.000031 0.000005 -0.000003 -0.000000 0.000002 0.000000 -21.074065 -6.136539 -13.084133 63.126514 -8.535719 -0.083104 6.476995 -0.036333 2.829586 -15.645365 -2.197404 13.676623 0.000000 0.000000 0.000000 
-25.209534 189.481796 14.739691 535.823477 -204.327226 -183.215084 13.557233 -5.364390 -6.201758 3.877510 -0.711215 -0.047453 3.884453 -0.670047 -0.067614 6.652585 10.060916 -1.521143 13.952133 53.186157 -21.498220 -0.000001 -0.000000 0.000000 -0.000001 -0.000000 0.000000 -0.000001 -0.000000 0.000000 0.629136 -1.962438 -12.793852 -0.647347 -8.742513 -52.283650 -0.000001 -63.929737 -0.000004 -53.134640 -7.576807 11.403342 0.000437 0.079242 -0.656721 0.024369 0.579940 -4.811328 0.001300 0.133618 -1.107261 -0.000001 -0.000005 -0.000001 -1.972978 2.467575 14.188975 4.145122 10.175980 1.912269 -0.434365 3.674731 3.740595 0.000001 -0.000001 0.000001 0.000473 0.081157 -0.672694 0.024185 0.578015 -4.795383 0.001289 0.133627 -1.107265 -0.000003 0.000000 0.000001 0.002604 0.189964 -1.574402 0.056161 0.879517 -7.308244 0.001294 0.133620 -1.107261 -0.000001 0.000001 -0.000003 0.056295 4.178612 -0.525013 0.147238 -2.612409 -12.549983 0.002421 0.182875 -1.515530 -0.000002 -0.000001 -0.000001 0.439349 -2.396109 6.753711 21.937318 45.681876 43.156103 -0.000065 73.582536 0.000063 -17.773614 17.318814 10.879000 0.204944 -1.678990 13.917584 0.768335 -3.182173 27.142443 0.115468 -1.264411 10.434611 0.000002 0.000001 0.000003 -1.077932 -5.086670 3.592343 4.229926 -9.589656 -2.355676 -1.666171 -0.770317 -4.184246 0.000000 -0.000002 0.000002 0.204939 -1.678988 13.917584 0.768338 -3.182164 27.142449 0.115461 -1.264409 10.434608 0.000002 0.000004 -0.000007 0.241284 -1.819317 15.108114 0.768358 -3.182162 27.142438 0.115461 -1.264418 10.434621 0.000001 0.000002 0.000001 0.322043 -2.095467 17.471907 0.768347 -3.182176 27.142444 0.115464 -1.264409 10.434602 -0.000001 0.000000 0.000001 -31.284623 9.247738 7.463268 42.335292 1.342406 1.622721 -8.826481 -0.296350 2.174983 -0.000012 0.000024 -0.000005 0.000000 -0.000000 0.000000 -15.725244 -1.930525 -13.015427 53.654964 -9.723193 -0.985095 6.454769 -1.210684 2.542942 -15.968272 -2.016399 12.807287 -0.000001 0.000000 -0.000001 
